#!OML:ASF H:\Not Pregnant\Project 1\Capture day 1\Session 1\non-pregnant.ASF
:FULLY-SPECIFIED
:DEGREES
653
root 5.92885 15.5825 28.3249 9.49382 -5.58665 -8.4193
lowerback -0.677726 3.16194 9.03219
upperback -6.14473 4.48038 0.106217
thorax -5.39986 1.78676 -5.08357
lowerneck 17.6989 -11.5237 -30.3524
upperneck -7.09263 -21.3557 42.4273
head 4.1835 -12.9183 20.4778
rclavicle -2.60159e-014 -1.63003e-014
rhumerus -35.1662 -7.43413 -85.3032
rradius 25.0139
rwrist 28.8049
rhand -9.69535 -0.332603
rfingers 7.12502
rthumb 16.277 -29.6694
lclavicle -2.60159e-014 -1.63003e-014
lhumerus -43.1652 -1.16311 86.2824
lradius 42.3826
lwrist 38.7954
lhand -17.8374 -15.3128
lfingers 7.12502
lthumb 8.42727 14.499
rfemur -10.9871 6.91899 32.8359
rtibia 28.2275
rfoot -21.0872 8.99015
rtoes -12.5008
lfemur -42.3137 2.65979 -8.28802
ltibia 33.2462
lfoot -8.21418 -3.86623
ltoes -33.6296
654
root 5.94245 15.5834 28.4148 9.5881 -5.6372 -8.47106
lowerback -0.776608 3.14328 9.09309
upperback -6.17057 4.4483 0.127331
thorax -5.3743 1.76882 -5.08913
lowerneck 17.6585 -11.5097 -30.3697
upperneck -7.12646 -21.3189 42.4084
head 4.16469 -12.8946 20.4743
rclavicle 2.31336e-014 9.93923e-015
rhumerus -35.1435 -7.48902 -85.2787
rradius 25.066
rwrist 28.6994
rhand -9.70856 -0.394866
rfingers 7.12502
rthumb 16.2643 -29.7327
lclavicle 2.31336e-014 9.93923e-015
lhumerus -43.2572 -1.16032 86.3641
lradius 42.3223
lwrist 38.7864
lhand -17.6961 -15.2471
lfingers 7.12502
lthumb 8.56362 14.5593
rfemur -10.5329 7.00878 32.8079
rtibia 27.8495
rfoot -21.0265 9.01895
rtoes -12.9392
lfemur -42.3242 2.10245 -8.08685
ltibia 31.8534
lfoot -7.93046 -4.38952
ltoes -33.4283
655
root 5.9561 15.5826 28.5047 9.67316 -5.6881 -8.52434
lowerback -0.850218 3.12013 9.14458
upperback -6.2072 4.41356 0.15331
thorax -5.37617 1.74839 -5.08647
lowerneck 17.6278 -11.4904 -30.3886
upperneck -7.14986 -21.2795 42.3851
head 4.14501 -12.8701 20.4715
rclavicle -7.95139e-015 -1.47101e-014
rhumerus -35.1488 -7.56331 -85.2395
rradius 25.1141
rwrist 28.5934
rhand -9.7217 -0.439376
rfingers 7.12502
rthumb 16.2516 -29.7783
lclavicle -7.95139e-015 -1.47101e-014
lhumerus -43.3703 -1.15508 86.4452
lradius 42.2076
lwrist 38.7539
lhand -17.5541 -15.147
lfingers 7.12502
lthumb 8.70067 14.6537
rfemur -10.0923 7.11061 32.7841
rtibia 27.5169
rfoot -20.977 9.02077
rtoes -13.4551
lfemur -42.3553 1.61176 -7.92789
ltibia 30.6714
lfoot -7.75105 -4.92437
ltoes -33.2427
656
root 5.97015 15.5804 28.5951 9.74759 -5.73223 -8.57564
lowerback -0.91028 3.09061 9.19108
upperback -6.25082 4.37219 0.182281
thorax -5.39488 1.72388 -5.079
lowerneck 17.6068 -11.4659 -30.409
upperneck -7.16426 -21.2374 42.3575
head 4.12403 -12.8445 20.4691
rclavicle 2.30342e-014 5.12864e-014
rhumerus -35.1797 -7.64563 -85.1913
rradius 25.1596
rwrist 28.4785
rhand -9.73766 -0.473386
rfingers 7.12502
rthumb 16.2363 -29.8135
lclavicle 2.30342e-014 5.12864e-014
lhumerus -43.5039 -1.14501 86.5258
lradius 42.0418
lwrist 38.6959
lhand -17.4159 -15.0238
lfingers 7.12502
lthumb 8.834 14.7713
rfemur -9.66159 7.20333 32.7583
rtibia 27.2306
rfoot -20.9399 9.02764
rtoes -13.9788
lfemur -42.3962 1.2171 -7.8446
ltibia 29.6908
lfoot -7.68543 -5.46024
ltoes -33.1466
657
root 5.98448 15.5772 28.686 9.8103 -5.77159 -8.62176
lowerback -0.96928 3.05788 9.23188
upperback -6.28724 4.32604 0.211266
thorax -5.40752 1.69781 -5.06813
lowerneck 17.5832 -11.4446 -30.4251
upperneck -7.18546 -21.1967 42.3324
head 4.10231 -12.8198 20.4663
rclavicle -4.87271e-014 3.57812e-015
rhumerus -35.2161 -7.73449 -85.1398
rradius 25.2091
rwrist 28.3502
rhand -9.75006 -0.50639
rfingers 7.12502
rthumb 16.2243 -29.8475
lclavicle -4.87271e-014 3.57812e-015
lhumerus -43.6273 -1.12827 86.604
lradius 41.818
lwrist 38.6044
lhand -17.2846 -14.87
lfingers 7.12502
lthumb 8.9607 14.9197
rfemur -9.24116 7.2943 32.7277
rtibia 26.9906
rfoot -20.9073 9.03343
rtoes -14.4968
lfemur -42.4311 0.926654 -7.84763
ltibia 28.8955
lfoot -7.70526 -5.97257
ltoes -33.0299
658
root 5.99928 15.5734 28.7777 9.86045 -5.80652 -8.65808
lowerback -1.03283 3.02285 9.26707
upperback -6.31731 4.27558 0.237131
thorax -5.41146 1.67042 -5.05689
lowerneck 17.5612 -11.424 -30.437
upperneck -7.20883 -21.1558 42.3094
head 4.07946 -12.7953 20.4639
rclavicle 2.34566e-014 1.35174e-014
rhumerus -35.2614 -7.82312 -85.0896
rradius 25.2628
rwrist 28.2112
rhand -9.76561 -0.544495
rfingers 7.12502
rthumb 16.2094 -29.8868
lclavicle 2.34566e-014 1.35174e-014
lhumerus -43.7471 -1.10802 86.68
lradius 41.5398
lwrist 38.48
lhand -17.1564 -14.7087
lfingers 7.12502
lthumb 9.08445 15.0757
rfemur -8.83064 7.37777 32.6853
rtibia 26.7976
rfoot -20.8813 9.0547
rtoes -15.0123
lfemur -42.4453 0.740438 -7.94756
ltibia 28.2667
lfoot -7.77965 -6.43758
ltoes -32.8603
